HIERARCHY
ROOT Hips
{
  OFFSET 52.5945 84.2722 11.4088
  CHANNELS 6 Xposition Yposition Zposition Zrotation Xrotation Yrotation
  JOINT spine
  {
    OFFSET 0 5.95438 0.342407
    CHANNELS 3 Zrotation Xrotation Yrotation
    JOINT spine1
    {
      OFFSET 0 8.85602 0
      CHANNELS 3 Zrotation Xrotation Yrotation
      JOINT spine2
      {
        OFFSET 0 8.48567 0
        CHANNELS 3 Zrotation Xrotation Yrotation
        JOINT Neck
        {
          OFFSET 0 21.7863 1.0387
          CHANNELS 3 Zrotation Xrotation Yrotation
          JOINT Head
          {
            OFFSET 0 6.5822 0
            CHANNELS 3 Zrotation Xrotation Yrotation
            End Site
            {
              OFFSET 0 15.9326 -5.25436
            }
          }
        }
        JOINT RightShoulder
        {
          OFFSET -3.57307 9.16386 -0.497525
          CHANNELS 3 Zrotation Xrotation Yrotation
          JOINT RightArm
          {
            OFFSET 0 12.0192 0
            CHANNELS 3 Zrotation Xrotation Yrotation
            JOINT RightArmRoll
            {
              OFFSET 0 6.06754 0
              CHANNELS 3 Zrotation Xrotation Yrotation
              JOINT RightForeArm
              {
                OFFSET 0 17.6726 0
                CHANNELS 3 Zrotation Xrotation Yrotation
                JOINT RightForeArmRoll
                {
                  OFFSET 0 6.80872 0
                  CHANNELS 3 Zrotation Xrotation Yrotation
                  JOINT RightHand
                  {
                    OFFSET 0 13.6636 0
                    CHANNELS 3 Zrotation Xrotation Yrotation
                    End Site
                    {
                      OFFSET 0 0 0
                    }
                  }
                }
              }
            }
          }
        }
        JOINT LeftShoulder
        {
          OFFSET 3.57307 9.16386 -0.497525
          CHANNELS 3 Zrotation Xrotation Yrotation
          JOINT LeftArm
          {
            OFFSET 0 12.0192 0
            CHANNELS 3 Zrotation Xrotation Yrotation
            JOINT LeftArmRoll
            {
              OFFSET 0 6.06754 0
              CHANNELS 3 Zrotation Xrotation Yrotation
              JOINT LeftForeArm
              {
                OFFSET 0 17.6726 0
                CHANNELS 3 Zrotation Xrotation Yrotation
                JOINT LeftForeArmRoll
                {
                  OFFSET 0 6.80872 0
                  CHANNELS 3 Zrotation Xrotation Yrotation
                  JOINT LeftHand
                  {
                    OFFSET 0 13.6636 0
                    CHANNELS 3 Zrotation Xrotation Yrotation
                    End Site
                    {
                      OFFSET 0 0 0
                    }
                  }
                }
              }
            }
          }
        }
      }
    }
  }
  JOINT RightUpLeg
  {
    OFFSET -5.27774 -0.967797 -0.811858
    CHANNELS 3 Zrotation Xrotation Yrotation
    JOINT RightUpLegRoll
    {
      OFFSET 0 16.0214 0
      CHANNELS 3 Zrotation Xrotation Yrotation
      JOINT RightLeg
      {
        OFFSET 0 -19.8401 0
        CHANNELS 3 Zrotation Xrotation Yrotation
        JOINT RightLegRoll
        {
          OFFSET 0 19.905 0
          CHANNELS 3 Zrotation Xrotation Yrotation
          JOINT RightFoot
          {
            OFFSET 0 16.5675 0
            CHANNELS 3 Zrotation Xrotation Yrotation
            JOINT RightToeBase
            {
              OFFSET 0 13.8496 0
              CHANNELS 3 Zrotation Xrotation Yrotation
              End Site
              {
                OFFSET 0.00587034 6.70728 -0.773117
              }
            }
          }
        }
      }
    }
  }
  JOINT LeftUpLeg
  {
    OFFSET 5.27774 -0.967797 -0.811858
    CHANNELS 3 Zrotation Xrotation Yrotation
    JOINT LeftUpLegRoll
    {
      OFFSET 0 16.0215 0
      CHANNELS 3 Zrotation Xrotation Yrotation
      JOINT LeftLeg
      {
        OFFSET 0 19.84 0
        CHANNELS 3 Zrotation Xrotation Yrotation
        JOINT LeftLegRoll
        {
          OFFSET 0 20.089 0
          CHANNELS 3 Zrotation Xrotation Yrotation
          JOINT LeftFoot
          {
            OFFSET 0 16.3835 0
            CHANNELS 3 Zrotation Xrotation Yrotation
            JOINT LeftToeBase
            {
              OFFSET 0 13.8496 0
              CHANNELS 3 Zrotation Xrotation Yrotation
              End Site
              {
                OFFSET -0.0263083 6.70727 -0.773117
              }
            }
          }
        }
      }
    }
  }
}
MOTION
Frames: 9
Frame Time: 0.00208333
50.9228 84.0773 8.26044 5.65996 1.52287 54.9125 -0.593008 -1.20411 0.0839749 -1.18501 1.5931 0.237182 -1.18887 3.23796 0.258842 -18.846 8.9403 4.54415 30.6195 -1.96553 1.82944 46.9592 6.27975 6.49551 163.925 28.5991 -85.9609 -3.01355e-006 -2.41836e-006 -2.33087e-006 -4.31112 36.9191 -0.835694 -3.06145e-006 7.88494e-006 -3.00001 8.03005 -4.95112 0.69758 -82.8479 -7.08738 5.21263 -77.8213 44.4646 -11.4928 -2.839e-005 -1.79703e-005 5.67611e-006 3.63884 -0.0341433 1.99291 9.30642e-006 -1.95695e-005 3.01161 -8.03009 -4.95136 -0.697592 178.189 -0.362936 2.14225 -180 7.01547e-015 178.925 -179.513 11.3993 179.493 2.32599e-006 -3.99697e-006 0.439163 -22.2279 71.7184 23.2527 8.14544 25.2322 -3.49155 178.763 7.43702 1.89127 4.54188e-006 -4.6773e-006 -0.870267 -2.50484 -6.49613 0.0221373 -8.9416e-007 -3.52444e-006 -0.0265695 18.1022 67.2666 -18.946 -8.1365 25.2327 3.48774 
50.9295 84.0824 8.30018 5.673 1.52098 54.8942 -0.591527 -1.2038 0.0840092 -1.18208 1.59373 0.237113 -1.18593 3.23859 0.258688 -18.8254 8.96813 4.56207 30.5755 -1.98472 1.85025 46.9848 6.27289 6.4844 163.938 28.626 -85.8932 -3.01355e-006 -2.41836e-006 -2.33087e-006 -4.30328 36.701 -0.845472 -3.06145e-006 7.88494e-006 -3.00001 8.03005 -4.95112 0.69758 -82.8543 -7.09397 5.21529 -77.845 44.4224 -11.4806 -2.839e-005 -1.79703e-005 5.67611e-006 3.63884 -0.0345156 1.99294 9.30642e-006 -1.95695e-005 3.01161 -8.03009 -4.95136 -0.697592 178.177 -0.361156 2.14855 -180 7.01547e-015 178.925 -179.513 11.4181 179.492 2.32599e-006 -3.99697e-006 0.44004 -22.2433 71.7313 23.269 8.14544 25.2322 -3.49155 178.75 7.42941 1.89906 4.54188e-006 -4.6773e-006 -0.870267 -2.5008 -6.50808 0.0227879 -8.9416e-007 -3.52444e-006 -0.0265695 18.0939 67.256 -18.937 -8.1365 25.2327 3.48774 
50.9194 84.0795 8.26816 5.68628 1.51876 54.8763 -0.589997 -1.20339 0.0840454 -1.17906 1.59455 0.237045 -1.18292 3.23941 0.258534 -18.8075 8.99653 4.58089 30.5346 -2.00511 1.87168 47.0083 6.26578 6.47356 163.952 28.6519 -85.8275 -3.01355e-006 -2.41836e-006 -2.33087e-006 -4.29562 36.4847 -0.855149 -3.06145e-006 7.88494e-006 -3.00001 8.03005 -4.95112 0.69758 -82.8612 -7.10021 5.21783 -77.8676 44.3816 -11.469 -2.839e-005 -1.79703e-005 5.67611e-006 3.63884 -0.0349236 1.99296 9.30642e-006 -1.95695e-005 3.01161 -8.03009 -4.95136 -0.697592 178.165 -0.359858 2.15477 -180 7.01548e-015 178.925 -179.513 11.4371 179.491 2.32599e-006 -3.99697e-006 0.440922 -22.2589 71.7443 23.2855 8.14544 25.2322 -3.49155 178.738 7.42146 1.90675 4.54188e-006 -4.6773e-006 -0.870267 -2.49663 -6.52038 0.0234579 -8.9416e-007 -3.52444e-006 -0.0265695 18.0854 67.245 -18.9278 -8.1365 25.2327 3.48774 
50.9308 84.0807 8.25596 5.69973 1.5163 54.8587 -0.588432 -1.20291 0.0840831 -1.17599 1.59551 0.236979 -1.17984 3.24037 0.25838 -18.7915 9.02533 4.60035 30.496 -2.02635 1.89352 47.0303 6.25849 6.46291 163.968 28.6773 -85.7633 -3.01355e-006 -2.41836e-006 -2.33087e-006 -4.28809 36.2697 -0.864746 -3.06145e-006 7.88494e-006 -3.00001 8.03005 -4.95112 0.69758 -82.8685 -7.10619 5.2203 -77.8894 44.3417 -11.458 -2.839e-005 -1.79703e-005 5.67611e-006 3.63884 -0.0353566 1.99299 9.30642e-006 -1.95695e-005 3.01161 -8.03009 -4.95136 -0.697592 178.154 -0.358899 2.16094 -180 7.01548e-015 178.926 -179.512 11.4561 179.491 2.32599e-006 -3.99697e-006 0.441808 -22.2747 71.7573 23.3022 8.14544 25.2322 -3.49155 178.725 7.41327 1.91437 4.54188e-006 -4.6773e-006 -0.870267 -2.49236 -6.53292 0.0241415 -8.9416e-007 -3.52444e-006 -0.0265695 18.0766 67.2338 -18.9183 -8.1365 25.2327 3.48774 
50.9315 84.0846 8.25597 5.71328 1.5137 54.8411 -0.586847 -1.20239 0.0841215 -1.17289 1.59654 0.236913 -1.17674 3.2414 0.258225 -18.7766 9.05436 4.62017 30.4588 -2.04807 1.91561 47.0515 6.2511 6.45236 163.983 28.7023 -85.6997 -3.01355e-006 -2.41836e-006 -2.33087e-006 -4.28069 36.0555 -0.874279 -3.06145e-006 7.88494e-006 -3.00001 8.03005 -4.95112 0.69758 -82.8758 -7.11204 5.22271 -77.9108 44.3023 -11.4472 -2.839e-005 -1.79703e-005 5.67611e-006 3.63884 -0.0358038 1.99302 9.30642e-006 -1.95695e-005 3.01161 -8.03009 -4.95136 -0.697592 178.143 -0.358133 2.16707 -180 7.01548e-015 178.926 -179.512 11.4751 179.49 2.32599e-006 -3.99697e-006 0.442694 -22.2906 71.7705 23.3189 8.14544 25.2322 -3.49155 178.713 7.40494 1.92196 4.54188e-006 -4.6773e-006 -0.870267 -2.48805 -6.54561 0.0248329 -8.9416e-007 -3.52444e-006 -0.0265695 18.0678 67.2224 -18.9087 -8.1365 25.2327 3.48774 
50.9202 84.0804 8.23021 5.72685 1.51107 54.8237 -0.585257 -1.20187 0.0841601 -1.16978 1.59759 0.236848 -1.17362 3.24246 0.25807 -18.762 9.08344 4.64008 30.4218 -2.06991 1.93776 47.0725 6.24368 6.44185 163.999 28.727 -85.6362 -3.01355e-006 -2.41836e-006 -2.33087e-006 -4.27338 35.8414 -0.883767 -3.06145e-006 7.88494e-006 -3.00001 8.03005 -4.95112 0.69758 -82.8833 -7.11785 5.22512 -77.932 44.263 -11.4366 -2.839e-005 -1.79703e-005 5.67611e-006 3.63884 -0.0362545 1.99305 9.30642e-006 -1.95695e-005 3.01161 -8.03009 -4.95136 -0.697592 178.131 -0.357416 2.1732 -180 7.01548e-015 178.927 -179.511 11.4942 179.489 2.32599e-006 -3.99697e-006 0.443582 -22.3066 71.7836 23.3358 8.14544 25.2322 -3.49155 178.701 7.39657 1.92954 4.54188e-006 -4.6773e-006 -0.870267 -2.48372 -6.55833 0.0255263 -8.9416e-007 -3.52444e-006 -0.0265695 18.0589 67.211 -18.8991 -8.1365 25.2327 3.48774 
50.9267 84.0803 8.23474 5.74037 1.5085 54.8061 -0.583678 -1.20137 0.0841984 -1.16668 1.59861 0.236782 -1.17052 3.24347 0.257915 -18.7468 9.11241 4.65982 30.3843 -2.09151 1.95979 47.0939 6.23631 6.43127 164.015 28.7518 -85.5722 -3.01355e-006 -2.41836e-006 -2.33087e-006 -4.26615 35.627 -0.893227 -3.06145e-006 7.88494e-006 -3.00001 8.03005 -4.95112 0.69758 -82.8906 -7.12373 5.22755 -77.9534 44.2235 -11.4258 -2.839e-005 -1.79703e-005 5.67611e-006 3.63884 -0.0366982 1.99307 9.30642e-006 -1.95695e-005 3.01161 -8.03009 -4.95136 -0.697592 178.12 -0.356602 2.17934 -180 7.01548e-015 178.927 -179.511 11.5132 179.488 2.32599e-006 -3.99697e-006 0.444468 -22.3225 71.7967 23.3526 8.14544 25.2322 -3.49155 178.688 7.38828 1.93714 4.54188e-006 -4.6773e-006 -0.870267 -2.47942 -6.57098 0.0262158 -8.9416e-007 -3.52444e-006 -0.0265695 18.0501 67.1997 -18.8895 -8.1365 25.2327 3.48774 
50.9442 84.0855 8.25612 5.75377 1.5061 54.7884 -0.582122 -1.20091 0.0842356 -1.16363 1.59952 0.236715 -1.16746 3.24439 0.25776 -18.7304 9.14108 4.67912 30.3451 -2.1125 1.98152 47.1163 6.22907 6.42057 164.03 28.7768 -85.5069 -3.01355e-006 -2.41836e-006 -2.33087e-006 -4.25896 35.4116 -0.902677 -3.06145e-006 7.88494e-006 -3.00001 8.03005 -4.95112 0.69758 -82.8977 -7.12979 5.23003 -77.9754 44.1833 -11.4147 -2.839e-005 -1.79703e-005 5.67611e-006 3.63884 -0.037124 1.9931 9.30642e-006 -1.95695e-005 3.01161 -8.03009 -4.95136 -0.697592 178.109 -0.355546 2.18553 -180 7.01548e-015 178.928 -179.511 11.5322 179.488 2.32599e-006 -3.99697e-006 0.445353 -22.3384 71.8098 23.3693 8.14544 25.2322 -3.49155 178.676 7.38015 1.94478 4.54188e-006 -4.6773e-006 -0.870267 -2.47518 -6.58345 0.0268957 -8.9416e-007 -3.52444e-006 -0.0265695 18.0415 67.1885 -18.8801 -8.1365 25.2327 3.48774 
50.9474 84.0882 8.25531 5.76697 1.50396 54.7704 -0.580607 -1.20053 0.0842713 -1.16064 1.60029 0.236647 -1.16447 3.24516 0.257606 -18.7118 9.1693 4.69769 30.3034 -2.13252 2.00277 47.1404 6.22203 6.40965 164.043 28.8022 -85.4397 -3.01355e-006 -2.41836e-006 -2.33087e-006 -4.2518 35.1948 -0.912134 -3.06145e-006 7.88494e-006 -3.00001 8.03005 -4.95112 0.69758 -82.9045 -7.13613 5.23261 -77.9982 44.142 -11.4031 -2.839e-005 -1.79703e-005 5.67611e-006 3.63884 -0.0375213 1.99313 9.30642e-006 -1.95695e-005 3.01161 -8.03009 -4.95136 -0.697592 178.097 -0.354104 2.19177 -180 7.01548e-015 178.928 -179.51 11.5511 179.487 2.32599e-006 -3.99697e-006 0.446233 -22.3541 71.8227 23.3859 8.14544 25.2322 -3.49155 178.664 7.37231 1.9525 4.54188e-006 -4.6773e-006 -0.870267 -2.47105 -6.59564 0.0275601 -8.9416e-007 -3.52444e-006 -0.0265695 18.0331 67.1776 -18.871 -8.1365 25.2327 3.48774 
